<svg xmlns="http://www.w3.org/2000/svg" xmlns:xlink="http://www.w3.org/1999/xlink" width="1080" zoomAndPan="magnify" viewBox="0 0 810 809.999993" height="1080" preserveAspectRatio="xMidYMid meet" version="1.0"><defs><clipPath id="d5208c2b40"><path d="M 31.527344 31.527344 L 778.472656 31.527344 L 778.472656 778.472656 L 31.527344 778.472656 Z M 31.527344 31.527344 " clip-rule="nonzero"/></clipPath><clipPath id="d290c0b534"><path d="M 405 31.527344 C 198.738281 31.527344 31.527344 198.738281 31.527344 405 C 31.527344 611.261719 198.738281 778.472656 405 778.472656 C 611.261719 778.472656 778.472656 611.261719 778.472656 405 C 778.472656 198.738281 611.261719 31.527344 405 31.527344 Z M 405 31.527344 " clip-rule="nonzero"/></clipPath><clipPath id="8879aa8d79"><path d="M 208 162.15625 L 648 162.15625 L 648 603 L 208 603 Z M 208 162.15625 " clip-rule="nonzero"/></clipPath></defs><rect x="-81" width="972" fill="#ffffff" y="-80.999999" height="971.999992" fill-opacity="1"/><rect x="-81" width="972" fill="#ffffff" y="-80.999999" height="971.999992" fill-opacity="1"/><g clip-path="url(#d5208c2b40)"><g clip-path="url(#d290c0b534)"><path fill="#ea5167" d="M 31.527344 31.527344 L 778.472656 31.527344 L 778.472656 778.472656 L 31.527344 778.472656 Z M 31.527344 31.527344 " fill-opacity="1" fill-rule="nonzero"/></g></g><g clip-path="url(#8879aa8d79)"><path fill="#ffffff" d="M 638.339844 162.425781 C 609.488281 162.425781 575.929688 168.691406 540.832031 180.4375 C 540.804688 180.445312 540.785156 180.4375 540.757812 180.445312 C 540.738281 180.457031 540.730469 180.464844 540.710938 180.476562 C 537.867188 181.425781 535.023438 182.347656 532.160156 183.375 C 531.882812 183.476562 531.59375 183.597656 531.3125 183.738281 C 524.230469 186.292969 517.265625 189.058594 510.402344 191.949219 C 510.367188 191.960938 510.328125 191.988281 510.292969 191.996094 C 467.746094 209.914062 429.964844 233.789062 404.484375 259.265625 L 354.855469 308.894531 L 313.445312 308.894531 C 293.515625 308.894531 274.777344 316.660156 260.671875 330.757812 L 210.957031 380.472656 C 208.265625 383.164062 207.480469 387.230469 208.980469 390.734375 C 210.445312 394.167969 213.828125 396.382812 217.546875 396.382812 C 217.625 396.382812 217.699219 396.382812 217.773438 396.382812 L 296.972656 394.472656 C 293.179688 415.234375 295.472656 436.804688 304.355469 456.222656 C 277.398438 483.902344 256.664062 520.40625 273.554688 537.296875 C 277.789062 541.539062 283.261719 543.402344 289.523438 543.402344 C 308.242188 543.402344 333.964844 526.632812 354.714844 506.394531 C 368.148438 512.519531 382.550781 515.699219 397.074219 515.699219 C 403.535156 515.699219 409.996094 515.035156 416.390625 513.871094 L 414.480469 593.089844 C 414.386719 596.902344 416.625 600.382812 420.128906 601.882812 C 421.3125 602.386719 422.5625 602.636719 423.800781 602.636719 C 426.226562 602.636719 428.613281 601.6875 430.390625 599.90625 L 480.105469 550.191406 C 494.203125 536.085938 501.96875 517.347656 501.96875 497.417969 L 501.96875 455.980469 L 551.226562 406.667969 C 576.878906 381.085938 600.828125 343.0625 618.726562 300.21875 C 618.726562 300.207031 618.738281 300.207031 618.738281 300.199219 C 621.730469 293.039062 624.589844 285.785156 627.21875 278.394531 C 628.199219 275.644531 629.074219 272.921875 629.988281 270.191406 C 630.027344 270.117188 630.082031 270.050781 630.117188 269.976562 C 630.164062 269.863281 630.136719 269.742188 630.183594 269.621094 C 641.910156 234.382812 648.074219 200.683594 647.925781 171.703125 C 647.878906 166.566406 643.46875 162.425781 638.339844 162.425781 Z M 302.175781 375.699219 L 240.613281 377.179688 L 273.84375 343.9375 C 284.425781 333.367188 298.484375 327.539062 313.4375 327.539062 L 336.199219 327.539062 L 327.492188 336.246094 C 316.046875 347.714844 307.589844 361.257812 302.175781 375.699219 Z M 337.355469 429.023438 C 331.261719 432.910156 325.0625 437.46875 318.917969 442.667969 C 313.15625 426.980469 312.316406 409.910156 316.121094 393.597656 C 321.621094 406.992188 330.152344 419.664062 337.355469 429.023438 Z M 343.472656 491.367188 C 314.109375 520.742188 289.832031 527.203125 286.738281 524.117188 C 283.660156 521.03125 290.132812 496.738281 319.496094 467.382812 C 332.460938 454.414062 346.351562 444.113281 358.59375 438.382812 C 365.808594 435.007812 370.75 434.09375 373.546875 434.09375 C 375.046875 434.09375 375.933594 434.355469 376.222656 434.644531 C 377.042969 435.464844 377.675781 441.167969 372.484375 452.269531 C 366.742188 464.519531 356.429688 478.402344 343.472656 491.367188 Z M 368.183594 491.9375 C 373.394531 485.785156 377.972656 479.566406 381.859375 473.449219 C 391.378906 480.75 404.140625 489.207031 417.648438 494.640625 C 401.230469 498.535156 384.003906 497.726562 368.183594 491.9375 Z M 483.3125 497.410156 C 483.3125 512.363281 477.488281 526.417969 466.917969 537 L 433.683594 570.242188 L 435.175781 508.625 C 449.632812 503.207031 463.195312 494.78125 474.664062 483.3125 L 483.324219 474.644531 L 483.324219 497.410156 Z M 538.035156 393.476562 L 461.472656 470.121094 C 458.097656 473.496094 454.5 476.546875 450.742188 479.304688 C 450.722656 479.316406 450.695312 479.316406 450.675781 479.332031 C 439.546875 485.765625 415.933594 476.621094 390.792969 456.699219 C 398.890625 437.214844 394.707031 426.757812 389.394531 421.453125 C 384.097656 416.136719 373.640625 411.933594 354.117188 420.074219 C 335.316406 396.429688 325.898438 373.703125 330.328125 361.835938 C 333.386719 357.472656 336.816406 353.296875 340.683594 349.429688 L 365.296875 324.820312 C 365.304688 324.808594 365.304688 324.808594 365.3125 324.800781 L 417.667969 272.445312 C 439.117188 250.996094 470.160156 230.675781 505.546875 214.445312 C 509.285156 232.726562 521.191406 253.046875 539.421875 271.261719 C 557.65625 289.46875 577.988281 301.328125 596.261719 305.035156 C 580.039062 340.695312 559.644531 371.921875 538.035156 393.476562 Z M 603.785156 287.464844 C 588.617188 285.710938 569.292969 274.730469 552.605469 258.070312 C 535.910156 241.402344 524.890625 222.023438 523.121094 206.894531 C 527.648438 205.066406 532.21875 203.285156 536.839844 201.609375 C 536.832031 201.738281 536.871094 201.859375 536.859375 201.980469 C 536.402344 211.386719 544.207031 229.816406 562.496094 248.105469 C 580.886719 266.5 599.410156 274.246094 608.855469 273.734375 C 608.910156 273.734375 608.976562 273.742188 609.03125 273.742188 C 607.363281 278.367188 605.601562 282.933594 603.785156 287.464844 Z M 615 255.472656 C 612.613281 255.183594 610.207031 254.976562 607.78125 255.117188 C 604.707031 255.507812 591.246094 250.472656 575.632812 234.859375 C 560.183594 219.421875 555.46875 206 555.484375 202.996094 C 555.636719 200.5 555.449219 198.019531 555.140625 195.546875 C 581.289062 187.457031 606.792969 182.414062 629.074219 181.3125 C 628.058594 203.574219 623.070312 229.191406 615 255.472656 Z M 615 255.472656 " fill-opacity="1" fill-rule="nonzero"/></g><path fill="#ffffff" d="M 468.359375 280.269531 C 451.460938 280.269531 435.574219 286.847656 423.632812 298.792969 C 411.683594 310.734375 405.109375 326.617188 405.109375 343.519531 C 405.109375 360.421875 411.683594 376.304688 423.632812 388.246094 C 435.574219 400.199219 451.460938 406.769531 468.359375 406.769531 C 485.261719 406.769531 501.148438 400.1875 513.089844 388.246094 C 525.039062 376.296875 531.613281 360.421875 531.613281 343.519531 C 531.613281 326.617188 525.039062 310.734375 513.089844 298.792969 C 501.148438 286.847656 485.261719 280.269531 468.359375 280.269531 Z M 499.90625 375.074219 C 491.488281 383.5 480.285156 388.132812 468.359375 388.132812 C 456.4375 388.132812 445.242188 383.492188 436.816406 375.074219 C 428.386719 366.648438 423.753906 355.453125 423.753906 343.527344 C 423.753906 331.613281 428.386719 320.410156 436.816406 311.980469 C 445.234375 303.554688 456.4375 298.921875 468.359375 298.921875 C 480.285156 298.921875 491.480469 303.5625 499.90625 311.980469 C 508.335938 320.410156 512.96875 331.605469 512.96875 343.527344 C 512.96875 355.441406 508.335938 366.648438 499.90625 375.074219 Z M 499.90625 375.074219 " fill-opacity="1" fill-rule="nonzero"/><path fill="#ffffff" d="M 178.925781 460.140625 L 217.894531 421.171875 C 221.539062 417.527344 221.539062 411.636719 217.894531 407.992188 C 214.25 404.347656 208.355469 404.347656 204.710938 407.992188 L 165.746094 446.957031 C 162.101562 450.601562 162.101562 456.492188 165.746094 460.140625 C 167.5625 461.957031 169.949219 462.871094 172.335938 462.871094 C 174.722656 462.871094 177.109375 461.957031 178.925781 460.140625 Z M 178.925781 460.140625 " fill-opacity="1" fill-rule="nonzero"/><path fill="#ffffff" d="M 265.726562 544.867188 C 262.082031 541.222656 256.1875 541.222656 252.542969 544.867188 L 192.238281 605.164062 C 188.59375 608.808594 188.59375 614.699219 192.238281 618.34375 C 194.058594 620.164062 196.445312 621.078125 198.828125 621.078125 C 201.214844 621.078125 203.601562 620.164062 205.421875 618.34375 L 265.726562 558.050781 C 269.359375 554.414062 269.359375 548.511719 265.726562 544.867188 Z M 265.726562 544.867188 " fill-opacity="1" fill-rule="nonzero"/><path fill="#ffffff" d="M 238.457031 475.835938 C 234.8125 472.191406 228.921875 472.191406 225.277344 475.835938 L 174.238281 526.875 C 170.59375 530.519531 170.59375 536.414062 174.238281 540.058594 C 176.054688 541.875 178.441406 542.789062 180.828125 542.789062 C 183.214844 542.789062 185.601562 541.875 187.417969 540.058594 L 238.457031 489.019531 C 242.101562 485.382812 242.101562 479.480469 238.457031 475.835938 Z M 238.457031 475.835938 " fill-opacity="1" fill-rule="nonzero"/><path fill="#ffffff" d="M 389.421875 592.699219 L 350.453125 631.667969 C 346.808594 635.3125 346.808594 641.203125 350.453125 644.847656 C 352.273438 646.664062 354.660156 647.578125 357.046875 647.578125 C 359.433594 647.578125 361.816406 646.664062 363.636719 644.847656 L 402.601562 605.882812 C 406.246094 602.234375 406.246094 596.34375 402.601562 592.699219 C 398.957031 589.054688 393.066406 589.054688 389.421875 592.699219 Z M 389.421875 592.699219 " fill-opacity="1" fill-rule="nonzero"/><path fill="#ffffff" d="M 321.574219 572.136719 L 270.535156 623.171875 C 266.890625 626.820312 266.890625 632.710938 270.535156 636.355469 C 272.355469 638.171875 274.738281 639.085938 277.125 639.085938 C 279.511719 639.085938 281.898438 638.171875 283.71875 636.355469 L 334.757812 585.316406 C 338.402344 581.671875 338.402344 575.78125 334.757812 572.136719 C 331.109375 568.488281 325.21875 568.488281 321.574219 572.136719 Z M 321.574219 572.136719 " fill-opacity="1" fill-rule="nonzero"/></svg>