<svg xmlns="http://www.w3.org/2000/svg" xmlns:xlink="http://www.w3.org/1999/xlink" width="1080" zoomAndPan="magnify" viewBox="0 0 810 809.999993" height="1080" preserveAspectRatio="xMidYMid meet" version="1.0"><defs><clipPath id="e5a473ca63"><path d="M 31.527344 31.527344 L 778.472656 31.527344 L 778.472656 778.472656 L 31.527344 778.472656 Z M 31.527344 31.527344 " clip-rule="nonzero"/></clipPath><clipPath id="2b5001d345"><path d="M 405 31.527344 C 198.738281 31.527344 31.527344 198.738281 31.527344 405 C 31.527344 611.261719 198.738281 778.472656 405 778.472656 C 611.261719 778.472656 778.472656 611.261719 778.472656 405 C 778.472656 198.738281 611.261719 31.527344 405 31.527344 Z M 405 31.527344 " clip-rule="nonzero"/></clipPath><clipPath id="f851fb832d"><path d="M 156.09375 289 L 521 289 L 521 654 L 156.09375 654 Z M 156.09375 289 " clip-rule="nonzero"/></clipPath><clipPath id="630c955fed"><path d="M 330 156.09375 L 654 156.09375 L 654 480 L 330 480 Z M 330 156.09375 " clip-rule="nonzero"/></clipPath></defs><rect x="-81" width="972" fill="#ffffff" y="-80.999999" height="971.999992" fill-opacity="1"/><rect x="-81" width="972" fill="#ffffff" y="-80.999999" height="971.999992" fill-opacity="1"/><g clip-path="url(#e5a473ca63)"><g clip-path="url(#2b5001d345)"><path fill="#ea5167" d="M 31.527344 31.527344 L 778.472656 31.527344 L 778.472656 778.472656 L 31.527344 778.472656 Z M 31.527344 31.527344 " fill-opacity="1" fill-rule="nonzero"/></g></g><path fill="#ffffff" d="M 397.625 376.527344 C 400.59375 370.328125 397.972656 362.898438 391.777344 359.929688 C 375.039062 351.917969 357.082031 347.855469 338.398438 347.855469 C 321.699219 347.855469 305.492188 351.128906 290.226562 357.585938 C 275.488281 363.816406 262.257812 372.738281 250.898438 384.097656 C 239.535156 395.460938 230.613281 408.691406 224.382812 423.429688 C 217.925781 438.691406 214.652344 454.898438 214.652344 471.601562 C 214.652344 488.300781 217.925781 504.507812 224.382812 519.773438 C 230.617188 534.511719 239.535156 547.742188 250.898438 559.101562 C 262.257812 570.464844 275.492188 579.382812 290.226562 585.617188 C 305.492188 592.074219 321.699219 595.347656 338.398438 595.347656 C 355.097656 595.347656 371.304688 592.074219 386.570312 585.617188 C 401.308594 579.382812 414.539062 570.464844 425.902344 559.101562 C 437.261719 547.742188 446.183594 534.507812 452.414062 519.773438 C 458.871094 504.507812 462.144531 488.300781 462.144531 471.601562 C 462.144531 453.203125 458.199219 435.492188 450.421875 418.960938 C 447.492188 412.742188 440.082031 410.074219 433.863281 413.003906 C 427.644531 415.929688 424.980469 423.339844 427.90625 429.558594 C 434.113281 442.75 437.261719 456.894531 437.261719 471.601562 C 437.261719 498.007812 426.976562 522.835938 408.304688 541.507812 C 389.632812 560.179688 364.804688 570.464844 338.398438 570.464844 C 311.992188 570.464844 287.164062 560.179688 268.492188 541.507812 C 249.820312 522.835938 239.535156 498.007812 239.535156 471.601562 C 239.535156 445.191406 249.820312 420.367188 268.492188 401.695312 C 287.164062 383.023438 311.992188 372.738281 338.398438 372.738281 C 353.332031 372.738281 367.675781 375.980469 381.027344 382.375 C 387.226562 385.34375 394.660156 382.722656 397.625 376.527344 Z M 397.625 376.527344 " fill-opacity="1" fill-rule="nonzero"/><g clip-path="url(#f851fb832d)"><path fill="#ffffff" d="M 475.699219 370.8125 C 469.878906 374.46875 468.125 382.148438 471.78125 387.96875 C 487.503906 412.984375 495.8125 441.902344 495.8125 471.601562 C 495.8125 492.855469 491.652344 513.46875 483.445312 532.867188 C 475.519531 551.609375 464.167969 568.445312 449.707031 582.90625 C 435.246094 597.367188 418.410156 608.71875 399.667969 616.648438 C 380.269531 624.851562 359.65625 629.011719 338.398438 629.011719 C 317.144531 629.011719 296.53125 624.851562 277.132812 616.648438 C 258.390625 608.71875 241.554688 597.367188 227.09375 582.90625 C 212.632812 568.445312 201.28125 551.609375 193.355469 532.867188 C 185.148438 513.46875 180.988281 492.855469 180.988281 471.601562 C 180.988281 468.59375 181.074219 465.550781 181.242188 462.558594 C 184.746094 400.640625 224.515625 346.402344 282.5625 324.375 C 300.375 317.617188 319.160156 314.1875 338.398438 314.1875 C 367.925781 314.1875 396.707031 322.410156 421.625 337.960938 C 423.671875 339.242188 425.949219 339.851562 428.199219 339.851562 C 432.347656 339.851562 436.40625 337.773438 438.765625 333.996094 C 442.40625 328.164062 440.628906 320.492188 434.800781 316.851562 C 405.925781 298.832031 372.59375 289.304688 338.398438 289.304688 C 316.136719 289.304688 294.378906 293.277344 273.738281 301.109375 C 206.515625 326.617188 160.457031 389.4375 156.398438 461.152344 C 156.203125 464.613281 156.101562 468.128906 156.101562 471.601562 C 156.101562 496.207031 160.925781 520.082031 170.433594 542.5625 C 179.617188 564.273438 192.757812 583.765625 209.496094 600.503906 C 226.234375 617.242188 245.730469 630.386719 267.4375 639.566406 C 289.921875 649.074219 313.796875 653.898438 338.398438 653.898438 C 363.003906 653.898438 386.878906 649.074219 409.363281 639.566406 C 431.070312 630.382812 450.566406 617.242188 467.304688 600.503906 C 484.042969 583.765625 497.183594 564.273438 506.367188 542.5625 C 515.875 520.082031 520.699219 496.207031 520.699219 471.601562 C 520.699219 437.214844 511.070312 403.714844 492.855469 374.730469 C 489.195312 368.910156 481.515625 367.15625 475.699219 370.8125 Z M 475.699219 370.8125 " fill-opacity="1" fill-rule="nonzero"/></g><g clip-path="url(#630c955fed)"><path fill="#ffffff" d="M 652.4375 254.824219 C 650.992188 250.375 647.167969 247.109375 642.546875 246.378906 L 579.941406 236.484375 C 579.335938 235.089844 578.46875 233.785156 577.328125 232.644531 C 576.191406 231.507812 574.882812 230.636719 573.492188 230.035156 L 563.59375 167.429688 C 562.863281 162.804688 559.601562 158.984375 555.152344 157.539062 C 550.703125 156.089844 545.816406 157.261719 542.507812 160.574219 L 463.070312 240.011719 C 460.253906 242.828125 458.953125 246.820312 459.578125 250.753906 L 470.773438 321.601562 L 334.453125 457.925781 C 329.59375 462.785156 329.59375 470.660156 334.453125 475.519531 C 336.882812 477.949219 340.066406 479.164062 343.25 479.164062 C 346.433594 479.164062 349.621094 477.949219 352.046875 475.519531 L 488.371094 339.195312 L 559.222656 350.394531 C 559.871094 350.5 560.519531 350.546875 561.164062 350.546875 C 564.441406 350.546875 567.613281 349.257812 569.964844 346.902344 L 649.402344 267.464844 C 652.710938 264.160156 653.882812 259.273438 652.4375 254.824219 Z M 542.832031 195.445312 L 550.214844 242.164062 L 492.53125 299.847656 L 485.148438 253.128906 Z M 556.847656 324.832031 L 510.128906 317.445312 L 567.8125 259.761719 L 614.535156 267.148438 Z M 556.847656 324.832031 " fill-opacity="1" fill-rule="nonzero"/></g><path fill="#ffffff" d="M 338.398438 438.5625 C 339.929688 438.5625 341.46875 438.667969 342.972656 438.875 C 349.78125 439.8125 356.058594 435.054688 356.996094 428.25 C 357.933594 421.441406 353.175781 415.164062 346.367188 414.222656 C 343.746094 413.863281 341.0625 413.679688 338.398438 413.679688 C 306.460938 413.679688 280.476562 439.664062 280.476562 471.601562 C 280.476562 503.542969 306.460938 529.523438 338.398438 529.523438 C 370.339844 529.523438 396.324219 503.542969 396.324219 471.601562 C 396.324219 468.996094 396.148438 466.367188 395.800781 463.796875 C 394.882812 456.984375 388.613281 452.210938 381.804688 453.128906 C 374.996094 454.046875 370.21875 460.3125 371.136719 467.125 C 371.339844 468.597656 371.4375 470.101562 371.4375 471.601562 C 371.4375 489.820312 356.617188 504.640625 338.398438 504.640625 C 320.183594 504.640625 305.363281 489.820312 305.363281 471.601562 C 305.363281 453.382812 320.183594 438.5625 338.398438 438.5625 Z M 338.398438 438.5625 " fill-opacity="1" fill-rule="nonzero"/></svg>