<svg xmlns="http://www.w3.org/2000/svg" xmlns:xlink="http://www.w3.org/1999/xlink" width="1080" zoomAndPan="magnify" viewBox="0 0 810 809.999993" height="1080" preserveAspectRatio="xMidYMid meet" version="1.0"><defs><clipPath id="c4fdd4c924"><path d="M 31.527344 31.527344 L 778.472656 31.527344 L 778.472656 778.472656 L 31.527344 778.472656 Z M 31.527344 31.527344 " clip-rule="nonzero"/></clipPath><clipPath id="8320a02748"><path d="M 405 31.527344 C 198.738281 31.527344 31.527344 198.738281 31.527344 405 C 31.527344 611.261719 198.738281 778.472656 405 778.472656 C 611.261719 778.472656 778.472656 611.261719 778.472656 405 C 778.472656 198.738281 611.261719 31.527344 405 31.527344 Z M 405 31.527344 " clip-rule="nonzero"/></clipPath><clipPath id="0755328a6d"><path d="M 382 392 L 408 392 L 408 422 L 382 422 Z M 382 392 " clip-rule="nonzero"/></clipPath><clipPath id="da471eb292"><path d="M 81 249.171875 L 496.496094 55.894531 L 731.210938 560.472656 L 315.71875 753.75 Z M 81 249.171875 " clip-rule="nonzero"/></clipPath><clipPath id="b6651aacc2"><path d="M 81 249.171875 L 496.496094 55.894531 L 731.210938 560.472656 L 315.71875 753.75 Z M 81 249.171875 " clip-rule="nonzero"/></clipPath><clipPath id="f546b17083"><path d="M 255 417 L 281 417 L 281 448 L 255 448 Z M 255 417 " clip-rule="nonzero"/></clipPath><clipPath id="ca3062bed0"><path d="M 81 249.171875 L 496.496094 55.894531 L 731.210938 560.472656 L 315.71875 753.75 Z M 81 249.171875 " clip-rule="nonzero"/></clipPath><clipPath id="a33e02c323"><path d="M 81 249.171875 L 496.496094 55.894531 L 731.210938 560.472656 L 315.71875 753.75 Z M 81 249.171875 " clip-rule="nonzero"/></clipPath><clipPath id="88a3c1dcc2"><path d="M 483 391 L 508 391 L 508 422 L 483 422 Z M 483 391 " clip-rule="nonzero"/></clipPath><clipPath id="82af64c383"><path d="M 81 249.171875 L 496.496094 55.894531 L 731.210938 560.472656 L 315.71875 753.75 Z M 81 249.171875 " clip-rule="nonzero"/></clipPath><clipPath id="023e8e4cbc"><path d="M 81 249.171875 L 496.496094 55.894531 L 731.210938 560.472656 L 315.71875 753.75 Z M 81 249.171875 " clip-rule="nonzero"/></clipPath><clipPath id="0b76b9a1db"><path d="M 399 523 L 425 523 L 425 553 L 399 553 Z M 399 523 " clip-rule="nonzero"/></clipPath><clipPath id="dc5588dbfd"><path d="M 81 249.171875 L 496.496094 55.894531 L 731.210938 560.472656 L 315.71875 753.75 Z M 81 249.171875 " clip-rule="nonzero"/></clipPath><clipPath id="786bf7b532"><path d="M 81 249.171875 L 496.496094 55.894531 L 731.210938 560.472656 L 315.71875 753.75 Z M 81 249.171875 " clip-rule="nonzero"/></clipPath><clipPath id="da42e56589"><path d="M 307 508 L 333 508 L 333 539 L 307 539 Z M 307 508 " clip-rule="nonzero"/></clipPath><clipPath id="dc1ae89523"><path d="M 81 249.171875 L 496.496094 55.894531 L 731.210938 560.472656 L 315.71875 753.75 Z M 81 249.171875 " clip-rule="nonzero"/></clipPath><clipPath id="1575bcc0dc"><path d="M 81 249.171875 L 496.496094 55.894531 L 731.210938 560.472656 L 315.71875 753.75 Z M 81 249.171875 " clip-rule="nonzero"/></clipPath><clipPath id="68caf20b3f"><path d="M 525 287 L 551 287 L 551 318 L 525 318 Z M 525 287 " clip-rule="nonzero"/></clipPath><clipPath id="0b014eac1d"><path d="M 81 249.171875 L 496.496094 55.894531 L 731.210938 560.472656 L 315.71875 753.75 Z M 81 249.171875 " clip-rule="nonzero"/></clipPath><clipPath id="57019ee67d"><path d="M 81 249.171875 L 496.496094 55.894531 L 731.210938 560.472656 L 315.71875 753.75 Z M 81 249.171875 " clip-rule="nonzero"/></clipPath><clipPath id="9a07cb2671"><path d="M 536 484 L 561 484 L 561 515 L 536 515 Z M 536 484 " clip-rule="nonzero"/></clipPath><clipPath id="f9d82e710c"><path d="M 81 249.171875 L 496.496094 55.894531 L 731.210938 560.472656 L 315.71875 753.75 Z M 81 249.171875 " clip-rule="nonzero"/></clipPath><clipPath id="c33ae98c58"><path d="M 81 249.171875 L 496.496094 55.894531 L 731.210938 560.472656 L 315.71875 753.75 Z M 81 249.171875 " clip-rule="nonzero"/></clipPath><clipPath id="6c92d6024d"><path d="M 495 575 L 521 575 L 521 606 L 495 606 Z M 495 575 " clip-rule="nonzero"/></clipPath><clipPath id="e21c5c7e28"><path d="M 81 249.171875 L 496.496094 55.894531 L 731.210938 560.472656 L 315.71875 753.75 Z M 81 249.171875 " clip-rule="nonzero"/></clipPath><clipPath id="7af7cdcebd"><path d="M 81 249.171875 L 496.496094 55.894531 L 731.210938 560.472656 L 315.71875 753.75 Z M 81 249.171875 " clip-rule="nonzero"/></clipPath><clipPath id="04298f1e83"><path d="M 183 158 L 616 158 L 616 664 L 183 664 Z M 183 158 " clip-rule="nonzero"/></clipPath><clipPath id="ab9d794af9"><path d="M 81 249.171875 L 496.496094 55.894531 L 731.210938 560.472656 L 315.71875 753.75 Z M 81 249.171875 " clip-rule="nonzero"/></clipPath><clipPath id="a34c9b424b"><path d="M 81 249.171875 L 496.496094 55.894531 L 731.210938 560.472656 L 315.71875 753.75 Z M 81 249.171875 " clip-rule="nonzero"/></clipPath></defs><rect x="-81" width="972" fill="#ffffff" y="-80.999999" height="971.999992" fill-opacity="1"/><rect x="-81" width="972" fill="#ffffff" y="-80.999999" height="971.999992" fill-opacity="1"/><g clip-path="url(#c4fdd4c924)"><g clip-path="url(#8320a02748)"><path fill="#ea5167" d="M 31.527344 31.527344 L 778.472656 31.527344 L 778.472656 778.472656 L 31.527344 778.472656 Z M 31.527344 31.527344 " fill-opacity="1" fill-rule="nonzero"/></g></g><g clip-path="url(#0755328a6d)"><g clip-path="url(#da471eb292)"><g clip-path="url(#b6651aacc2)"><path fill="#ffffff" d="M 401.59375 420.976562 C 396.625 423.285156 390.699219 421.121094 388.386719 416.152344 L 383.726562 406.140625 C 381.417969 401.171875 383.554688 395.253906 388.550781 392.929688 C 393.519531 390.621094 399.445312 392.785156 401.757812 397.753906 L 406.417969 407.765625 C 408.703125 412.746094 406.5625 418.664062 401.59375 420.976562 Z M 401.59375 420.976562 " fill-opacity="1" fill-rule="nonzero"/></g></g></g><g clip-path="url(#f546b17083)"><g clip-path="url(#ca3062bed0)"><g clip-path="url(#a33e02c323)"><path fill="#ffffff" d="M 274.480469 446.867188 C 269.511719 449.175781 263.582031 447.011719 261.269531 442.042969 L 256.613281 432.03125 C 254.300781 427.0625 256.441406 421.144531 261.433594 418.820312 C 266.429688 416.5 272.332031 418.675781 274.640625 423.644531 L 279.300781 433.65625 C 281.625 438.652344 279.449219 444.554688 274.480469 446.867188 Z M 274.480469 446.867188 " fill-opacity="1" fill-rule="nonzero"/></g></g></g><g clip-path="url(#88a3c1dcc2)"><g clip-path="url(#82af64c383)"><g clip-path="url(#023e8e4cbc)"><path fill="#ffffff" d="M 502.148438 420.492188 C 497.179688 422.804688 491.253906 420.640625 488.941406 415.671875 L 484.28125 405.65625 C 481.972656 400.6875 484.109375 394.773438 489.105469 392.449219 C 494.074219 390.136719 500 392.300781 502.3125 397.269531 L 506.972656 407.285156 C 509.28125 412.253906 507.117188 418.179688 502.148438 420.492188 Z M 502.148438 420.492188 " fill-opacity="1" fill-rule="nonzero"/></g></g></g><g clip-path="url(#0b76b9a1db)"><g clip-path="url(#dc5588dbfd)"><g clip-path="url(#786bf7b532)"><path fill="#ffffff" d="M 418.554688 551.996094 C 413.585938 554.308594 407.65625 552.144531 405.347656 547.175781 L 400.6875 537.160156 C 398.375 532.191406 400.515625 526.273438 405.507812 523.953125 C 410.476562 521.640625 416.40625 523.804688 418.71875 528.773438 L 423.375 538.789062 C 425.699219 543.78125 423.546875 549.671875 418.554688 551.996094 Z M 418.554688 551.996094 " fill-opacity="1" fill-rule="nonzero"/></g></g></g><g clip-path="url(#da42e56589)"><g clip-path="url(#dc1ae89523)"><g clip-path="url(#1575bcc0dc)"><path fill="#ffffff" d="M 326.460938 537.855469 C 321.496094 540.167969 315.566406 538.003906 313.253906 533.035156 L 308.597656 523.019531 C 306.285156 518.050781 308.421875 512.136719 313.417969 509.8125 C 318.410156 507.488281 324.316406 509.664062 326.625 514.632812 L 331.285156 524.648438 C 333.582031 529.652344 331.429688 535.546875 326.460938 537.855469 Z M 326.460938 537.855469 " fill-opacity="1" fill-rule="nonzero"/></g></g></g><g clip-path="url(#68caf20b3f)"><g clip-path="url(#0b014eac1d)"><g clip-path="url(#57019ee67d)"><path fill="#ffffff" d="M 544.761719 316.339844 C 539.792969 318.652344 533.863281 316.488281 531.550781 311.519531 L 526.894531 301.503906 C 524.582031 296.535156 526.722656 290.621094 531.714844 288.296875 C 536.683594 285.984375 542.613281 288.148438 544.925781 293.117188 L 549.582031 303.132812 C 551.894531 308.101562 549.730469 314.027344 544.761719 316.339844 Z M 544.761719 316.339844 " fill-opacity="1" fill-rule="nonzero"/></g></g></g><g clip-path="url(#9a07cb2671)"><g clip-path="url(#f9d82e710c)"><g clip-path="url(#c33ae98c58)"><path fill="#ffffff" d="M 555.125 513.546875 C 550.15625 515.855469 544.226562 513.691406 541.914062 508.722656 L 537.257812 498.710938 C 534.945312 493.742188 537.085938 487.824219 542.078125 485.5 C 547.046875 483.191406 552.976562 485.355469 555.289062 490.324219 L 559.945312 500.335938 C 562.269531 505.332031 560.09375 511.234375 555.125 513.546875 Z M 555.125 513.546875 " fill-opacity="1" fill-rule="nonzero"/></g></g></g><g clip-path="url(#6c92d6024d)"><g clip-path="url(#e21c5c7e28)"><g clip-path="url(#7af7cdcebd)"><path fill="#ffffff" d="M 514.527344 604.144531 C 509.558594 606.457031 503.628906 604.292969 501.316406 599.324219 L 496.660156 589.308594 C 494.347656 584.339844 496.488281 578.421875 501.480469 576.101562 C 506.476562 573.777344 512.378906 575.953125 514.691406 580.921875 L 519.347656 590.9375 C 521.671875 595.929688 519.496094 601.832031 514.527344 604.144531 Z M 514.527344 604.144531 " fill-opacity="1" fill-rule="nonzero"/></g></g></g><g clip-path="url(#04298f1e83)"><g clip-path="url(#ab9d794af9)"><g clip-path="url(#a34c9b424b)"><path fill="#ffffff" d="M 564.46875 249.414062 C 538.554688 220.222656 505.324219 204.777344 465.707031 203.519531 C 458.558594 203.292969 451.332031 203.695312 443.835938 204.65625 C 447.550781 201.996094 451.179688 200.152344 454.171875 198.882812 C 459.007812 196.757812 461.136719 192.09375 459.96875 187.371094 C 458.789062 182.625 454.367188 179.414062 449.492188 179.847656 C 426.296875 181.757812 403.769531 187.96875 382.765625 198.207031 C 368.03125 205.371094 354.40625 214.390625 342.125 225.023438 C 331.140625 210.320312 319.253906 197.28125 307.65625 184.609375 C 300.742188 177.046875 293.828125 169.484375 287.128906 161.574219 C 284.058594 157.921875 278.738281 157.0625 274.679688 159.324219 C 272.113281 160.769531 267.851562 162.59375 263.785156 164.363281 C 259.214844 166.332031 254.496094 168.371094 251.066406 170.308594 C 248.664062 171.644531 246.945312 173.910156 246.277344 176.554688 C 245.609375 179.203125 246.074219 182.007812 247.523438 184.324219 C 254.382812 195.121094 262.539062 204.816406 270.410156 214.238281 C 278.539062 223.949219 286.878906 233.902344 293.890625 245.15625 C 276.011719 246.308594 249.992188 252.117188 225.671875 270.285156 C 203.636719 286.734375 189.339844 313.730469 185.683594 322.75 C 184.027344 326.824219 185.246094 331.519531 188.695312 334.246094 C 192.117188 336.984375 196.929688 337.144531 200.589844 334.632812 C 202.40625 333.382812 204.148438 332.507812 205.921875 331.433594 C 187.023438 359.851562 179.921875 391.597656 184.941406 425.960938 C 194.457031 491.222656 244.957031 547.609375 289.042969 578.628906 C 333.675781 610.015625 462.796875 685.34375 523.339844 657.179688 C 583.882812 629.015625 609.453125 481.730469 614.199219 427.375 C 618.875 373.671875 608.269531 298.699219 564.46875 249.414062 Z M 237.570312 286.152344 C 272.464844 260.109375 308.664062 265.199219 309.003906 265.257812 C 312.636719 265.90625 316.34375 264.492188 318.597656 261.574219 C 320.855469 258.65625 321.332031 254.726562 319.796875 251.359375 C 310.671875 231.273438 297.933594 216.078125 285.648438 201.386719 C 280.402344 195.136719 275.367188 189.128906 270.765625 182.921875 C 271.046875 182.792969 271.367188 182.671875 271.648438 182.542969 C 273.4375 181.773438 275.230469 181 276.984375 180.214844 C 282.246094 186.242188 287.589844 192.105469 292.9375 197.96875 C 307.082031 213.445312 320.417969 228.050781 332.347656 245.523438 C 334.007812 247.957031 336.644531 249.535156 339.582031 249.820312 C 342.515625 250.105469 345.414062 249.101562 347.53125 247.027344 C 360.359375 234.421875 375.148438 224.023438 391.449219 216.066406 C 399.074219 212.363281 406.742188 209.296875 414.671875 206.789062 C 412.863281 209.59375 411.433594 212.347656 410.179688 215.082031 C 410.113281 215.203125 410.070312 215.316406 410.003906 215.441406 C 404.785156 227.058594 404.171875 237.65625 404.476562 243.808594 C 404.617188 246.453125 405.800781 248.925781 407.769531 250.6875 C 409.742188 252.449219 412.347656 253.355469 414.992188 253.214844 C 422.902344 252.746094 438.261719 253.417969 452.171875 263.023438 C 460.300781 268.648438 465.226562 275.550781 468.132812 281.269531 C 460.859375 285.121094 451.183594 288.964844 439.601562 290.585938 C 421.140625 293.160156 406.449219 289.027344 397.371094 285.121094 C 394.25 283.769531 390.726562 284.097656 387.828125 286.039062 C 385.007812 287.941406 383.363281 291.167969 383.480469 294.570312 C 383.765625 303.285156 382.253906 312.027344 378.980469 320.527344 C 376.15625 327.917969 372.121094 334.839844 366.949219 341.140625 C 361.207031 341.722656 353.628906 341.636719 345.574219 339.183594 C 334.109375 335.699219 326.925781 329.167969 322.941406 324.289062 C 320.84375 321.714844 317.605469 320.386719 314.324219 320.699219 C 313.183594 320.792969 312.089844 321.113281 311.066406 321.589844 C 309.144531 322.484375 307.558594 323.96875 306.507812 325.859375 C 301.164062 335.730469 294 344.511719 285.222656 352.023438 C 275.042969 360.683594 264.453125 366.046875 255.667969 369.324219 C 253.980469 363.285156 252.980469 355.714844 254.152344 346.914062 C 255.964844 333.265625 262.214844 322.789062 267.144531 316.382812 C 268.96875 314.007812 269.625 310.929688 268.925781 308.015625 C 268.222656 305.101562 266.269531 302.644531 263.550781 301.355469 C 254.4375 296.964844 238.539062 297.074219 221.019531 302.542969 C 225.890625 296.539062 231.464844 290.707031 237.570312 286.152344 Z M 594.382812 425.625 C 587.710938 502.03125 558.671875 618.8125 514.953125 639.148438 C 471.234375 659.484375 363.21875 606.492188 300.472656 562.347656 C 259.742188 533.722656 213.203125 482.097656 204.597656 423.078125 C 199.769531 390.0625 208.003906 359.8125 229.0625 333.164062 C 232.863281 328.339844 237.25 323.839844 242.078125 319.414062 C 238.683594 326.382812 235.757812 334.691406 234.488281 344.285156 C 232.078125 362.476562 236.535156 376.945312 240.703125 385.910156 C 242.742188 390.289062 247.667969 392.578125 252.328125 391.28125 C 269.179688 386.652344 285.035156 378.34375 298.164062 367.125 C 305.441406 360.9375 311.792969 353.960938 317.191406 346.34375 C 322.898438 350.914062 330.34375 355.332031 339.878906 358.21875 C 350.53125 361.425781 362.238281 362.148438 373.6875 360.3125 C 374.589844 360.171875 375.480469 359.882812 376.300781 359.5 C 377.503906 358.941406 378.613281 358.113281 379.515625 357.101562 C 387.421875 348.253906 393.515625 338.316406 397.609375 327.625 C 400.082031 321.148438 401.785156 314.5625 402.679688 307.914062 C 413.316406 310.757812 426.800781 312.425781 442.394531 310.25 C 457.808594 308.097656 472.910156 302.378906 486.082031 293.730469 C 489.828125 291.269531 491.460938 286.617188 490.078125 282.367188 C 485.457031 268.007812 476.007812 255.332031 463.476562 246.675781 C 450.0625 237.398438 435.835938 234.269531 424.988281 233.457031 C 425.300781 231.847656 425.742188 230.117188 426.308594 228.324219 C 440.566406 224.621094 453.074219 222.976562 465.121094 223.355469 C 499.046875 224.425781 527.496094 237.640625 549.652344 262.570312 C 589.199219 307.195312 598.703125 376.046875 594.382812 425.625 Z M 594.382812 425.625 " fill-opacity="1" fill-rule="nonzero"/></g></g></g></svg>