<svg xmlns="http://www.w3.org/2000/svg" xmlns:xlink="http://www.w3.org/1999/xlink" width="1080" zoomAndPan="magnify" viewBox="0 0 810 809.999993" height="1080" preserveAspectRatio="xMidYMid meet" version="1.0"><defs><clipPath id="c4a01749be"><path d="M 31.527344 31.527344 L 778.472656 31.527344 L 778.472656 778.472656 L 31.527344 778.472656 Z M 31.527344 31.527344 " clip-rule="nonzero"/></clipPath><clipPath id="d391f57904"><path d="M 405 31.527344 C 198.738281 31.527344 31.527344 198.738281 31.527344 405 C 31.527344 611.261719 198.738281 778.472656 405 778.472656 C 611.261719 778.472656 778.472656 611.261719 778.472656 405 C 778.472656 198.738281 611.261719 31.527344 405 31.527344 Z M 405 31.527344 " clip-rule="nonzero"/></clipPath><clipPath id="eacee8ac9a"><path d="M 215 204 L 600.792969 204 L 600.792969 591 L 215 591 Z M 215 204 " clip-rule="nonzero"/></clipPath><clipPath id="016d9be43d"><path d="M 574 270 L 600.792969 270 L 600.792969 296.804688 L 574 296.804688 Z M 574 270 " clip-rule="nonzero"/></clipPath><clipPath id="f70ec945b4"><path d="M 259 130.058594 L 286 130.058594 L 286 157 L 259 157 Z M 259 130.058594 " clip-rule="nonzero"/></clipPath><clipPath id="a202492f54"><path d="M 229 456 L 555 456 L 555 671.148438 L 229 671.148438 Z M 229 456 " clip-rule="nonzero"/></clipPath><clipPath id="29e8ffe5eb"><path d="M 208.761719 307 L 292 307 L 292 391 L 208.761719 391 Z M 208.761719 307 " clip-rule="nonzero"/></clipPath></defs><rect x="-81" width="972" fill="#ffffff" y="-80.999999" height="971.999992" fill-opacity="1"/><rect x="-81" width="972" fill="#ffffff" y="-80.999999" height="971.999992" fill-opacity="1"/><g clip-path="url(#c4a01749be)"><g clip-path="url(#d391f57904)"><path fill="#ea5167" d="M 31.527344 31.527344 L 778.472656 31.527344 L 778.472656 778.472656 L 31.527344 778.472656 Z M 31.527344 31.527344 " fill-opacity="1" fill-rule="nonzero"/></g></g><g clip-path="url(#eacee8ac9a)"><path fill="#ea5167" d="M 600.792969 397.515625 C 600.792969 291.054688 514.488281 204.785156 408.0625 204.785156 C 301.636719 204.785156 215.332031 291.054688 215.332031 397.515625 C 215.332031 503.941406 301.636719 590.25 408.0625 590.25 C 514.488281 590.25 600.792969 503.941406 600.792969 397.515625 " fill-opacity="1" fill-rule="nonzero"/></g><path fill="#ffffff" d="M 521.949219 323.050781 C 536.492188 323.050781 548.230469 334.789062 548.230469 349.332031 C 548.230469 363.878906 536.492188 375.613281 521.949219 375.613281 C 507.40625 375.613281 495.667969 363.878906 495.667969 349.332031 C 495.667969 334.789062 507.40625 323.050781 521.949219 323.050781 " fill-opacity="1" fill-rule="nonzero"/><path fill="#ffffff" d="M 337.976562 191.644531 C 352.523438 191.644531 364.257812 203.382812 364.257812 217.925781 C 364.257812 232.46875 352.523438 244.207031 337.976562 244.207031 C 323.433594 244.207031 311.695312 232.46875 311.695312 217.925781 C 311.695312 203.382812 323.433594 191.644531 337.976562 191.644531 " fill-opacity="1" fill-rule="nonzero"/><path fill="#ffffff" d="M 250.371094 314.292969 C 269.742188 314.292969 285.414062 329.964844 285.414062 349.332031 C 285.414062 368.667969 269.742188 384.375 250.371094 384.375 C 231.003906 384.375 215.332031 368.667969 215.332031 349.332031 C 215.332031 329.964844 231.003906 314.292969 250.371094 314.292969 " fill-opacity="1" fill-rule="nonzero"/><path fill="#ffffff" d="M 545.082031 511.300781 C 561.816406 562.90625 510.039062 626.316406 429.519531 652.976562 C 349.269531 679.496094 270.699219 659.546875 253.691406 608.351562 C 253.625 608.179688 253.519531 608.007812 253.519531 607.839844 L 236.171875 555.789062 C 253.179688 606.984375 331.75 626.933594 411.996094 600.410156 C 439.855469 591.207031 464.289062 577.519531 483.65625 561.503906 C 520.203125 531.183594 538.511719 492.480469 527.5625 458.738281 L 544.910156 510.789062 C 544.980469 510.957031 545.082031 511.128906 545.082031 511.300781 " fill-opacity="1" fill-rule="nonzero"/><path fill="#ffffff" d="M 275.59375 456.207031 L 483.65625 561.503906 C 464.289062 577.519531 439.855469 591.207031 411.996094 600.410156 C 331.75 626.933594 253.179688 606.984375 236.171875 555.789062 C 236.101562 555.617188 236 555.445312 236 555.273438 C 225.492188 522.9375 241.953125 485.910156 275.59375 456.207031 " fill-opacity="1" fill-rule="nonzero"/><path fill="#ffffff" d="M 527.5625 458.738281 C 538.511719 492.480469 520.203125 531.183594 483.65625 561.503906 L 275.59375 456.207031 C 295.578125 438.582031 321.585938 423.523438 351.5625 413.632812 C 431.8125 387.078125 510.382812 407.0625 527.390625 458.222656 L 527.5625 458.738281 " fill-opacity="1" fill-rule="nonzero"/><g clip-path="url(#016d9be43d)"><path fill="#ffffff" d="M 587.652344 270.488281 C 594.941406 270.488281 600.792969 276.339844 600.792969 283.628906 C 600.792969 290.882812 594.941406 296.769531 587.652344 296.769531 C 580.363281 296.769531 574.511719 290.882812 574.511719 283.628906 C 574.511719 276.339844 580.363281 270.488281 587.652344 270.488281 " fill-opacity="1" fill-rule="nonzero"/></g><path fill="#ffffff" d="M 574.511719 156.601562 C 584.128906 156.601562 592.035156 164.402344 592.035156 174.121094 C 592.035156 183.738281 584.128906 191.644531 574.511719 191.644531 C 564.898438 191.644531 556.992188 183.738281 556.992188 174.121094 C 556.992188 164.402344 564.898438 156.601562 574.511719 156.601562 " fill-opacity="1" fill-rule="nonzero"/><path fill="#ffffff" d="M 491.289062 226.6875 C 498.578125 226.6875 504.429688 232.539062 504.429688 239.828125 C 504.429688 247.082031 498.578125 252.96875 491.289062 252.96875 C 484 252.96875 478.148438 247.082031 478.148438 239.828125 C 478.148438 232.539062 484 226.6875 491.289062 226.6875 " fill-opacity="1" fill-rule="nonzero"/><path fill="#ffffff" d="M 447.484375 165.363281 C 454.773438 165.363281 460.625 171.214844 460.625 178.503906 C 460.625 185.757812 454.773438 191.644531 447.484375 191.644531 C 440.195312 191.644531 434.34375 185.757812 434.34375 178.503906 C 434.34375 171.214844 440.195312 165.363281 447.484375 165.363281 " fill-opacity="1" fill-rule="nonzero"/><path fill="#ffffff" d="M 390.542969 296.769531 C 400.15625 296.769531 408.0625 304.574219 408.0625 314.292969 C 408.0625 323.90625 400.15625 331.8125 390.542969 331.8125 C 380.925781 331.8125 373.019531 323.90625 373.019531 314.292969 C 373.019531 304.574219 380.925781 296.769531 390.542969 296.769531 " fill-opacity="1" fill-rule="nonzero"/><g clip-path="url(#f70ec945b4)"><path fill="#ffffff" d="M 272.273438 130.320312 C 279.5625 130.320312 285.414062 136.171875 285.414062 143.460938 C 285.414062 150.714844 279.5625 156.601562 272.273438 156.601562 C 264.984375 156.601562 259.132812 150.714844 259.132812 143.460938 C 259.132812 136.171875 264.984375 130.320312 272.273438 130.320312 " fill-opacity="1" fill-rule="nonzero"/></g><path fill="#a6a6a6" d="M 242.332031 553.53125 C 242.363281 553.597656 242.398438 553.667969 242.433594 553.734375 C 258.242188 601.335938 333.390625 619.472656 409.945312 594.148438 C 436.054688 585.558594 460.078125 572.488281 479.480469 556.4375 C 515.449219 526.597656 531.050781 490.835938 521.300781 460.757812 C 521.265625 460.6875 521.230469 460.585938 521.230469 460.515625 C 521.195312 460.449219 521.164062 460.378906 521.128906 460.277344 C 505.316406 412.675781 430.167969 394.539062 353.617188 419.863281 C 325.523438 429.136719 300.027344 443.40625 279.9375 461.132812 C 247.019531 490.1875 232.953125 524.613281 242.261719 553.253906 C 242.296875 553.324219 242.332031 553.425781 242.332031 553.53125 Z M 342.425781 618.582031 C 287.707031 618.582031 242.742188 596.375 229.941406 557.875 C 229.910156 557.703125 229.839844 557.535156 229.769531 557.292969 L 229.769531 557.328125 C 218.785156 523.550781 234.289062 483.925781 271.246094 451.277344 C 292.667969 432.386719 319.703125 417.226562 349.511719 407.371094 C 432.941406 379.789062 515.515625 401.65625 533.617188 456.136719 C 533.652344 456.238281 533.6875 456.34375 533.722656 456.445312 C 533.753906 456.546875 533.753906 456.617188 533.789062 456.71875 C 545.289062 492.101562 528.109375 533.167969 487.867188 566.566406 C 467.230469 583.644531 441.703125 597.503906 414.050781 606.640625 C 389.582031 614.75 365.148438 618.582031 342.425781 618.582031 " fill-opacity="1" fill-rule="nonzero"/><g clip-path="url(#a202492f54)"><path fill="#a6a6a6" d="M 359.949219 671.148438 C 305.230469 671.148438 260.261719 648.9375 247.464844 610.4375 C 247.429688 610.300781 247.359375 610.097656 247.292969 609.925781 L 229.941406 557.875 C 228.8125 554.453125 230.660156 550.722656 234.117188 549.558594 C 237.574219 548.429688 241.269531 550.277344 242.433594 553.734375 L 259.78125 605.75 C 259.78125 605.886719 259.851562 605.988281 259.851562 606.09375 C 259.886719 606.160156 259.921875 606.230469 259.953125 606.296875 C 275.730469 653.898438 350.914062 672.035156 427.464844 646.714844 C 504.460938 621.253906 554.425781 561.398438 538.820312 513.320312 C 538.785156 513.25 538.753906 513.148438 538.753906 513.046875 C 538.71875 512.976562 538.683594 512.910156 538.648438 512.875 L 521.300781 460.824219 L 527.390625 458.222656 L 533.617188 456.171875 L 551.140625 508.699219 C 551.207031 508.871094 551.242188 509.078125 551.3125 509.28125 C 569.140625 564.207031 515.449219 631.449219 431.570312 659.203125 C 407.105469 667.3125 382.671875 671.148438 359.949219 671.148438 " fill-opacity="1" fill-rule="nonzero"/></g><path fill="#a6a6a6" d="M 483.65625 568.074219 C 482.664062 568.074219 481.636719 567.832031 480.679688 567.355469 L 272.648438 462.058594 C 269.398438 460.414062 268.097656 456.480469 269.742188 453.226562 C 271.382812 450.011719 275.320312 448.675781 278.570312 450.351562 L 486.632812 555.652344 C 489.882812 557.292969 491.152344 561.230469 489.507812 564.480469 C 488.378906 566.738281 486.050781 568.074219 483.65625 568.074219 " fill-opacity="1" fill-rule="nonzero"/><g clip-path="url(#29e8ffe5eb)"><path fill="#ffffff" d="M 250.371094 320.863281 C 234.664062 320.863281 221.902344 333.625 221.902344 349.332031 C 221.902344 365.007812 234.664062 377.804688 250.371094 377.804688 C 266.078125 377.804688 278.84375 365.007812 278.84375 349.332031 C 278.84375 333.625 266.078125 320.863281 250.371094 320.863281 Z M 250.371094 390.945312 C 227.445312 390.945312 208.761719 372.261719 208.761719 349.332031 C 208.761719 326.371094 227.445312 307.722656 250.371094 307.722656 C 273.300781 307.722656 291.984375 326.371094 291.984375 349.332031 C 291.984375 372.261719 273.300781 390.945312 250.371094 390.945312 " fill-opacity="1" fill-rule="nonzero"/></g><path fill="#ffffff" d="M 521.949219 329.621094 C 511.101562 329.621094 502.238281 338.449219 502.238281 349.332031 C 502.238281 360.179688 511.101562 369.042969 521.949219 369.042969 C 532.796875 369.042969 541.660156 360.179688 541.660156 349.332031 C 541.660156 338.449219 532.796875 329.621094 521.949219 329.621094 Z M 521.949219 382.183594 C 503.847656 382.183594 489.097656 367.4375 489.097656 349.332031 C 489.097656 331.195312 503.847656 316.480469 521.949219 316.480469 C 540.050781 316.480469 554.800781 331.195312 554.800781 349.332031 C 554.800781 367.4375 540.050781 382.183594 521.949219 382.183594 " fill-opacity="1" fill-rule="nonzero"/><path fill="#ffffff" d="M 337.976562 198.214844 C 327.128906 198.214844 318.265625 207.042969 318.265625 217.925781 C 318.265625 228.773438 327.128906 237.636719 337.976562 237.636719 C 348.824219 237.636719 357.6875 228.773438 357.6875 217.925781 C 357.6875 207.042969 348.824219 198.214844 337.976562 198.214844 Z M 337.976562 250.777344 C 319.875 250.777344 305.125 236.027344 305.125 217.925781 C 305.125 199.789062 319.875 185.074219 337.976562 185.074219 C 356.082031 185.074219 370.828125 199.789062 370.828125 217.925781 C 370.828125 236.027344 356.082031 250.777344 337.976562 250.777344 " fill-opacity="1" fill-rule="nonzero"/></svg>